<svg width="56" height="57" viewBox="0 0 56 57" fill="none" xmlns="http://www.w3.org/2000/svg">
<path fill-rule="evenodd" clip-rule="evenodd" d="M28 7.86084C22.2964 7.86084 21.5824 7.88464 19.3424 7.98684C17.1066 8.08904 15.5792 8.44464 14.2436 8.96404C12.8436 9.49044 11.5738 10.3164 10.5238 11.386C9.45591 12.4348 8.6294 13.7037 8.1018 15.1044C7.5852 16.44 7.2282 17.9688 7.126 20.2046C7.0252 22.4432 7 23.1558 7 28.8608C7 34.5658 7.0238 35.2784 7.126 37.5184C7.2282 39.7542 7.5838 41.2816 8.1032 42.6172C8.6296 44.0172 9.4556 45.287 10.5252 46.337C11.574 47.4049 12.8429 48.2314 14.2436 48.759C15.5792 49.277 17.1066 49.6326 19.3424 49.7348C21.5824 49.837 22.2964 49.8608 28 49.8608C33.7036 49.8608 34.4176 49.837 36.6576 49.7348C38.8934 49.6326 40.4208 49.277 41.7564 48.7576C43.1564 48.2312 44.4262 47.4052 45.4762 46.3356C46.5441 45.2869 47.3706 44.0179 47.8982 42.6172C48.4162 41.2816 48.7718 39.7542 48.874 37.5184C48.9762 35.2784 49 34.5644 49 28.8608C49 23.1572 48.9762 22.4432 48.874 20.2032C48.7718 17.9674 48.4162 16.44 47.8968 15.1044C47.3696 13.7031 46.543 12.4337 45.4748 11.3846C44.426 10.3168 43.1571 9.49024 41.7564 8.96264C40.4208 8.44604 38.892 8.08904 36.6562 7.98684C34.4176 7.88604 33.705 7.86084 28 7.86084ZM28 11.645C33.607 11.645 34.272 11.666 36.4868 11.7668C38.5336 11.8606 39.6452 12.2008 40.3858 12.4906C41.3658 12.87 42.0658 13.3264 42.8008 14.06C43.5358 14.795 43.9908 15.495 44.3702 16.475C44.6586 17.2156 45.0002 18.3272 45.094 20.374C45.1948 22.5888 45.2158 23.2538 45.2158 28.8608C45.2158 34.4678 45.1948 35.1328 45.094 37.3476C45.0002 39.3944 44.66 40.506 44.3702 41.2466C44.0341 42.1588 43.4978 42.984 42.8008 43.6616C42.1233 44.3588 41.298 44.8951 40.3858 45.231C39.6452 45.5194 38.5336 45.861 36.4868 45.9548C34.272 46.0556 33.6084 46.0766 28 46.0766C22.3916 46.0766 21.728 46.0556 19.5132 45.9548C17.4664 45.861 16.3548 45.5208 15.6142 45.231C14.702 44.8949 13.8768 44.3587 13.1992 43.6616C12.5022 42.984 11.966 42.1588 11.6298 41.2466C11.3414 40.506 10.9998 39.3944 10.906 37.3476C10.8052 35.1328 10.7842 34.4678 10.7842 28.8608C10.7842 23.2538 10.8052 22.5888 10.906 20.374C10.9998 18.3272 11.34 17.2156 11.6298 16.475C12.0092 15.495 12.4656 14.795 13.1992 14.06C13.8767 13.3629 14.702 12.8266 15.6142 12.4906C16.3548 12.2022 17.4664 11.8606 19.5132 11.7668C21.728 11.666 22.393 11.645 28 11.645Z" fill="#F9F9F9"/>
<path fill-rule="evenodd" clip-rule="evenodd" d="M28 35.8678C27.0798 35.8678 26.1687 35.6866 25.3185 35.3345C24.4684 34.9823 23.696 34.4662 23.0453 33.8155C22.3946 33.1649 21.8785 32.3924 21.5264 31.5423C21.1742 30.6922 20.993 29.781 20.993 28.8608C20.993 27.9407 21.1742 27.0295 21.5264 26.1794C21.8785 25.3292 22.3946 24.5568 23.0453 23.9061C23.696 23.2555 24.4684 22.7393 25.3185 22.3872C26.1687 22.0351 27.0798 21.8538 28 21.8538C29.8584 21.8538 31.6406 22.5921 32.9547 23.9061C34.2688 25.2202 35.007 27.0025 35.007 28.8608C35.007 30.7192 34.2688 32.5015 32.9547 33.8155C31.6406 35.1296 29.8584 35.8678 28 35.8678ZM28 18.0668C25.1372 18.0668 22.3917 19.2041 20.3675 21.2283C18.3432 23.2526 17.206 25.9981 17.206 28.8608C17.206 31.7236 18.3432 34.4691 20.3675 36.4933C22.3917 38.5176 25.1372 39.6548 28 39.6548C30.8627 39.6548 33.6082 38.5176 35.6325 36.4933C37.6568 34.4691 38.794 31.7236 38.794 28.8608C38.794 25.9981 37.6568 23.2526 35.6325 21.2283C33.6082 19.2041 30.8627 18.0668 28 18.0668ZM41.9342 17.8708C41.9342 18.5475 41.6654 19.1965 41.1869 19.675C40.7084 20.1535 40.0594 20.4223 39.3827 20.4223C38.706 20.4223 38.057 20.1535 37.5785 19.675C37.1 19.1965 36.8312 18.5475 36.8312 17.8708C36.8312 17.1941 37.1 16.5452 37.5785 16.0667C38.057 15.5882 38.706 15.3193 39.3827 15.3193C40.0594 15.3193 40.7084 15.5882 41.1869 16.0667C41.6654 16.5452 41.9342 17.1941 41.9342 17.8708Z" fill="#F9F9F9"/>
</svg>
